# xmcd
#
# Track frame offsets: 
#        150
#        17356
#        33115
#        54932
#        72349
#        92373
#        114914
#        136138
#        157712
#        174708
#        194001
#        222401
#
# Disc length: 3204 seconds
#
# Revision: 0
# Processed by: cddbd v1.5.2PL0 Copyright (c) Steve Scherf et al.
# Submitted via: ExactAudioCopyFreeDBPlugin 1.0
#
DISCID=910c820c
DTITLE=EG Knight - It's Hot In Here
DYEAR=2008
DGENRE=Blues
TTITLE0=I Want You Just Cause I Want You
TTITLE1=It's Hot In Here
TTITLE2=I'm New At This
TTITLE3=Then There's The Truth
TTITLE4=Roses and Promises
TTITLE5=Pass The Plate
TTITLE6=Sugar
TTITLE7=Through The Eyes Of A Child
TTITLE8=Love Me Or Let Me Go
TTITLE9=Southern Woman and A Nawthern Man
TTITLE10=House Of The Rising Sun
TTITLE11=You Can't Take It With You
EXTD=
EXTT0=
EXTT1=
EXTT2=
EXTT3=
EXTT4=
EXTT5=
EXTT6=
EXTT7=
EXTT8=
EXTT9=
EXTT10=
EXTT11=
PLAYORDER=
